<svg width="406" height="406" viewBox="0 0 406 406" fill="none" xmlns="http://www.w3.org/2000/svg">
<path fill-rule="evenodd" clip-rule="evenodd" d="M245.597 66.8047C220.499 41.7318 179.808 41.7318 154.71 66.8047L63.8232 157.602C38.7256 182.674 38.7256 223.326 63.8232 248.398L154.71 339.195C179.808 364.268 220.499 364.268 245.597 339.195L336.483 248.398C361.581 223.326 361.581 182.674 336.483 157.602L310.931 132.075L370 73.0646L346.696 49.7833L287.627 108.794L245.597 66.8047ZM264.323 132.075L222.292 90.0859C210.065 77.8709 190.241 77.8709 178.014 90.0859L135.709 132.349L199.879 196.455L264.323 132.075ZM112.405 155.63L87.1275 180.883C74.9004 193.098 74.9004 212.902 87.1275 225.117L178.014 315.914C190.241 328.129 210.065 328.129 222.292 315.914L313.179 225.117C325.406 212.902 325.406 193.098 313.179 180.883L287.627 155.356L199.879 243.018L112.405 155.63Z" fill="url(#paint0_linear_516_355)"/>
<defs>
<linearGradient id="paint0_linear_516_355" x1="335.5" y1="79" x2="117.5" y2="297" gradientUnits="userSpaceOnUse">
<stop stop-color="#FFCBDB"/>
<stop offset="1" stop-color="#FFEEC1"/>
</linearGradient>
</defs>
</svg>
